<svg xmlns="http://www.w3.org/2000/svg" xmlns:xlink="http://www.w3.org/1999/xlink" width="1920" height="1080" viewBox="0 0 1920 1080">
  <defs>
    <style>
      .a {
        fill: none;
      }

      .b {
        opacity: 0.5;
      }

      .c {
        fill: #00a99d;
      }

      .d {
        clip-path: url(#a);
      }
		
	@keyframes x{
		0%{
			transform: translateX(-5vw);
		}
		100%{
			transform: translateX(5vw);
		}
	}
	@keyframes y{
		0%{
			transform: translateY(20vh);
		}
		100%{
			transform: translateY(-100vh);
		}
	}
	
	.x{
		animation: x 13s ease-in-out -11s infinite alternate-reverse;
	}
	.y{
		animation: x 26s ease-in-out -5s infinite alternate-reverse;
	}
	.z{
		animation: x 17s ease-in-out -11s infinite alternate-reverse;
	}
	.w{
		animation: x 34s ease-in-out -5s infinite alternate-reverse;
	}
	.x2{
		animation: y 23s linear -5s infinite;
	}
	.y2{
		animation: y 46s linear -11s infinite;
	}
	.z2{
		animation: y 29s linear -5s infinite;
	}
	.w2{
		animation: y 58s linear -11s infinite;
	}
		
    </style>
    <clipPath id="a">
      <rect class="a" x="-0.15" y="-1079.75" width="1920" height="1080"/>
    </clipPath>
  </defs>
  <g class="b x">
    <path class="c x2" d="M99.06,897.37a8.25,8.25,0,0,1,2.37,6.07v9.5h1.32c1.58.36,3.87.79,6.86,1.32q4.76.79,7.65,1.32a8.17,8.17,0,0,1,5,4,8,8,0,0,1,1,6.33,9.22,9.22,0,0,1-4,5.28A9.74,9.74,0,0,1,113,932.2q-2.12-.53-6.33-1.32-4-.79-6.6-1Q87.18,928,79.53,931.15q-6.86,2.9-7.38,7.38-.54,4,.26,5.28a12.56,12.56,0,0,0,3.43,3.69q6.6,4,19.26,6.86l.79.27c3.87,1,7.92,2.29,12.14,3.69a52.76,52.76,0,0,1,11.34,5.54,23.42,23.42,0,0,1,11.08,25.86,26.59,26.59,0,0,1-6.06,12.66A31.51,31.51,0,0,1,113,1010a46.36,46.36,0,0,1-11.61,2.9v8.71a8.44,8.44,0,1,1-16.88,0v-9.23H84a105.08,105.08,0,0,1-11.61-2.64,92.48,92.48,0,0,1-12.4-4.22,9.06,9.06,0,0,1-4.48-4.75,7.85,7.85,0,0,1,.26-6.6A8.08,8.08,0,0,1,60.27,990a8.58,8.58,0,0,1,6.6,0,72.28,72.28,0,0,0,10,3.43q5.53,1.59,9.76,2.38,12.91,1.58,20-1.32,6.58-2.91,7.12-7.66c.35-2.81.27-4.65-.26-5.54a10.55,10.55,0,0,0-3.43-3.43q-6.6-3.95-19.52-7.12l-.53-.26A93,93,0,0,1,78,966.76a51.51,51.51,0,0,1-11.34-5.27,25.1,25.1,0,0,1-9.5-10.56,25.74,25.74,0,0,1-1.58-15.56,25.44,25.44,0,0,1,6.33-12.67,31.1,31.1,0,0,1,11.61-7.38,39,39,0,0,1,11.08-2.64v-9.24a8.59,8.59,0,0,1,14.51-6.07Z"/>
  </g>
  <g class="b y">
    <path class="c y2" d="M312.46,924.24a6.05,6.05,0,0,1,1.75,4.47v7h1c1.16.26,2.85.58,5.05,1s4.22.71,5.64,1a6,6,0,0,1,3.7,2.92,5.89,5.89,0,0,1,.78,4.67,6.82,6.82,0,0,1-2.92,3.89,7.19,7.19,0,0,1-4.67.78c-1-.26-2.59-.59-4.67-1s-3.56-.64-4.86-.77q-9.53-1.36-15.17,1c-3.37,1.43-5.19,3.24-5.45,5.45-.26,1.94-.19,3.24.2,3.89a9.37,9.37,0,0,0,2.53,2.72q4.86,2.91,14.2,5.06l.58.19q4.28,1.17,8.95,2.72a38.83,38.83,0,0,1,8.36,4.09,17.29,17.29,0,0,1,8.17,19.06,19.67,19.67,0,0,1-4.47,9.34,23.32,23.32,0,0,1-8.37,5.64,34.3,34.3,0,0,1-8.56,2.14v6.42a6.23,6.23,0,1,1-12.45,0v-6.81h-.38a78.12,78.12,0,0,1-8.56-1.94,68.31,68.31,0,0,1-9.15-3.12,6.63,6.63,0,0,1-3.3-3.5,5.8,5.8,0,0,1,.19-4.86,5.93,5.93,0,0,1,3.31-3.11,6.3,6.3,0,0,1,4.86,0,54,54,0,0,0,7.39,2.53c2.73.77,5.12,1.36,7.2,1.75q9.53,1.16,14.78-1,4.86-2.13,5.26-5.64c.25-2.07.19-3.43-.2-4.08a7.66,7.66,0,0,0-2.53-2.53q-4.86-2.93-14.39-5.25l-.39-.2a67.61,67.61,0,0,1-9-2.72,38.11,38.11,0,0,1-8.36-3.89,18.62,18.62,0,0,1-7-7.78,19.05,19.05,0,0,1-1.16-11.48,18.78,18.78,0,0,1,4.67-9.34,23,23,0,0,1,8.55-5.44,29,29,0,0,1,8.17-2v-6.81a6.33,6.33,0,0,1,10.7-4.47Z"/>
  </g>
  <g class="b z">
    <path class="c z2" d="M1872.3,869.73A5.84,5.84,0,0,1,1874,874v6.76h.94c1.12.25,2.75.56,4.88.94s4.06.68,5.44.93a5.82,5.82,0,0,1,3.56,2.82,5.68,5.68,0,0,1,.75,4.5,6.57,6.57,0,0,1-2.81,3.75,7,7,0,0,1-4.51.75c-1-.25-2.5-.56-4.5-.94s-3.44-.62-4.69-.75q-9.19-1.31-14.63.94-4.87,2.07-5.25,5.25c-.25,1.88-.19,3.13.19,3.75a8.63,8.63,0,0,0,2.44,2.63q4.68,2.82,13.69,4.88l.56.19q4.13,1.13,8.63,2.62a37.5,37.5,0,0,1,8.07,3.94,16.65,16.65,0,0,1,7.87,18.38,18.94,18.94,0,0,1-4.31,9,22.36,22.36,0,0,1-8.07,5.44,33,33,0,0,1-8.25,2.06v6.19a6,6,0,1,1-12,0v-6.56h-.38a73.53,73.53,0,0,1-8.25-1.88,65.79,65.79,0,0,1-8.82-3,6.49,6.49,0,0,1-3.19-3.38,5.6,5.6,0,0,1,.19-4.69,5.72,5.72,0,0,1,3.19-3,6.14,6.14,0,0,1,4.69,0,51.13,51.13,0,0,0,7.13,2.44q3.93,1.13,6.94,1.69c6.12.75,10.88.44,14.25-.94,3.13-1.37,4.82-3.19,5.07-5.44.25-2,.18-3.31-.19-3.94a7.51,7.51,0,0,0-2.44-2.44q-4.7-2.81-13.88-5.06l-.38-.19a65.27,65.27,0,0,1-8.62-2.63,36.15,36.15,0,0,1-8.07-3.75,17.85,17.85,0,0,1-6.75-7.5,18.35,18.35,0,0,1-1.13-11.07,18.14,18.14,0,0,1,4.5-9,22.06,22.06,0,0,1,8.26-5.25,27.84,27.84,0,0,1,7.88-1.88V874a5.77,5.77,0,0,1,6-6A5.81,5.81,0,0,1,1872.3,869.73Z"/>
  </g>
  <g class="b w">
    <path class="c w2" d="M1718.06,931.37a8.25,8.25,0,0,1,2.37,6.07v9.5h1.32c1.58.36,3.87.79,6.86,1.32q4.76.79,7.65,1.32a8.17,8.17,0,0,1,5,4,8,8,0,0,1,1,6.33,9.22,9.22,0,0,1-4,5.28,9.74,9.74,0,0,1-6.33,1.05q-2.11-.53-6.33-1.32-4-.79-6.6-1-12.93-1.85-20.58,1.32-6.85,2.9-7.38,7.38-.54,4,.26,5.28a12.56,12.56,0,0,0,3.43,3.69q6.6,4,19.26,6.86l.79.27c3.87,1,7.92,2.29,12.14,3.69a52.76,52.76,0,0,1,11.34,5.54,23.42,23.42,0,0,1,11.08,25.86,26.59,26.59,0,0,1-6.06,12.66A31.51,31.51,0,0,1,1732,1044a46.36,46.36,0,0,1-11.61,2.9v8.71a8.44,8.44,0,1,1-16.88,0v-9.23H1703a105.08,105.08,0,0,1-11.61-2.64,92.48,92.48,0,0,1-12.4-4.22,9.06,9.06,0,0,1-4.48-4.75,7.85,7.85,0,0,1,.26-6.6,8.08,8.08,0,0,1,4.48-4.22,8.58,8.58,0,0,1,6.6,0,72.28,72.28,0,0,0,10,3.43q5.53,1.59,9.76,2.38,12.91,1.57,20-1.32,6.58-2.91,7.12-7.66c.35-2.81.27-4.65-.26-5.54a10.55,10.55,0,0,0-3.43-3.43q-6.6-3.95-19.52-7.12l-.53-.26a93,93,0,0,1-12.14-3.7,51.51,51.51,0,0,1-11.34-5.27,25.1,25.1,0,0,1-9.5-10.56,25.74,25.74,0,0,1-1.58-15.56,25.44,25.44,0,0,1,6.33-12.67,31.1,31.1,0,0,1,11.61-7.38,39,39,0,0,1,11.08-2.64v-9.24a8.59,8.59,0,0,1,14.51-6.07Z"/>
  </g>
  <g class="d">
    <image width="4024" height="2688" transform="translate(0 -1080) scale(0.48)" xlink:href="data/005.png"/>
  </g>
</svg>
